<svg width="129" height="57" viewBox="0 0 129 57" fill="none" xmlns="http://www.w3.org/2000/svg">
<path d="M2.376 41V38.156H11.16C11.736 38.156 12.228 38.036 12.636 37.796C13.068 37.532 13.392 37.196 13.608 36.788C13.824 36.38 13.932 35.948 13.932 35.492C13.932 35.06 13.836 34.664 13.644 34.304C13.452 33.92 13.152 33.62 12.744 33.404C12.36 33.164 11.892 33.044 11.34 33.044H7.632C6.456 33.044 5.424 32.852 4.536 32.468C3.672 32.06 2.988 31.472 2.484 30.704C2.004 29.936 1.764 29 1.764 27.896C1.764 26.96 1.992 26.096 2.448 25.304C2.904 24.512 3.54 23.876 4.356 23.396C5.172 22.892 6.108 22.64 7.164 22.64H15.624V25.484H7.488C6.744 25.484 6.156 25.712 5.724 26.168C5.292 26.624 5.076 27.164 5.076 27.788C5.076 28.388 5.292 28.916 5.724 29.372C6.18 29.804 6.816 30.02 7.632 30.02H11.16C12.48 30.02 13.584 30.236 14.472 30.668C15.384 31.076 16.068 31.676 16.524 32.468C17.004 33.26 17.244 34.232 17.244 35.384C17.244 36.368 17.004 37.292 16.524 38.156C16.044 38.996 15.372 39.68 14.508 40.208C13.668 40.736 12.684 41 11.556 41H2.376ZM30.9004 22.208C29.1244 22.208 27.5284 22.592 26.1124 23.36C24.6964 24.128 23.5684 25.244 22.7284 26.708C21.9124 28.148 21.5044 29.888 21.5044 31.928V48.92H24.8164V37.724H24.8884C25.2964 38.468 25.8244 39.116 26.4724 39.668C27.1444 40.22 27.9004 40.652 28.7404 40.964C29.6044 41.276 30.5044 41.432 31.4404 41.432C33.1444 41.432 34.6684 41.048 36.0124 40.28C37.3564 39.512 38.4124 38.432 39.1804 37.04C39.9724 35.624 40.3684 33.956 40.3684 32.036C40.3684 30.524 40.1284 29.168 39.6484 27.968C39.1924 26.744 38.5444 25.7 37.7044 24.836C36.8644 23.972 35.8684 23.324 34.7164 22.892C33.5644 22.436 32.2924 22.208 30.9004 22.208ZM30.9004 25.052C32.0284 25.052 33.0484 25.328 33.9604 25.88C34.8964 26.432 35.6404 27.212 36.1924 28.22C36.7444 29.228 37.0204 30.428 37.0204 31.82C37.0204 33.164 36.7444 34.34 36.1924 35.348C35.6644 36.356 34.9444 37.148 34.0324 37.724C33.1204 38.3 32.0884 38.588 30.9364 38.588C29.8084 38.588 28.7764 38.312 27.8404 37.76C26.9284 37.208 26.1964 36.428 25.6444 35.42C25.1164 34.388 24.8524 33.176 24.8524 31.784C24.8524 30.416 25.1164 29.228 25.6444 28.22C26.1964 27.212 26.9284 26.432 27.8404 25.88C28.7764 25.328 29.7964 25.052 30.9004 25.052ZM44.6046 41V14.72H47.9166V41H44.6046ZM61.7867 41.432C60.1307 41.432 58.6427 41.096 57.3227 40.424C56.0267 39.728 55.0067 38.768 54.2627 37.544C53.5427 36.32 53.1827 34.892 53.1827 33.26V22.64H56.5307V33.224C56.5307 34.328 56.7707 35.288 57.2507 36.104C57.7307 36.896 58.3667 37.508 59.1587 37.94C59.9747 38.372 60.8387 38.588 61.7507 38.588C62.6867 38.588 63.5507 38.372 64.3427 37.94C65.1587 37.508 65.8067 36.896 66.2867 36.104C66.7907 35.288 67.0427 34.328 67.0427 33.224V22.64H70.3907V33.26C70.3907 34.892 70.0187 36.32 69.2747 37.544C68.5307 38.768 67.5107 39.728 66.2147 40.424C64.9187 41.096 63.4427 41.432 61.7867 41.432ZM75.5395 41V27.86C75.5395 26.228 75.9955 24.956 76.9075 24.044C77.8435 23.108 79.1275 22.64 80.7595 22.64H84.5395V25.484H81.3715C80.5795 25.484 79.9555 25.712 79.4995 26.168C79.0675 26.624 78.8515 27.26 78.8515 28.076V41H75.5395ZM90.3727 48.308V45.464H99.3727C100.261 45.464 100.945 45.2 101.425 44.672C101.929 44.144 102.181 43.448 102.181 42.584V37.544H102.109C101.653 38.24 101.101 38.864 100.453 39.416C99.8047 39.968 99.0607 40.412 98.2207 40.748C97.3807 41.06 96.4327 41.216 95.3767 41.216C93.6487 41.216 92.1247 40.82 90.8047 40.028C89.4847 39.212 88.4527 38.096 87.7087 36.68C86.9647 35.24 86.5927 33.596 86.5927 31.748C86.5927 29.948 86.9647 28.328 87.7087 26.888C88.4527 25.448 89.5207 24.308 90.9127 23.468C92.3287 22.628 94.0327 22.208 96.0247 22.208C97.9447 22.208 99.6127 22.616 101.029 23.432C102.445 24.248 103.537 25.388 104.305 26.852C105.097 28.292 105.493 29.984 105.493 31.928V42.8C105.493 44.48 105.001 45.812 104.017 46.796C103.033 47.804 101.689 48.308 99.9847 48.308H90.3727ZM95.9887 38.372C97.2127 38.372 98.2807 38.084 99.1927 37.508C100.129 36.932 100.849 36.152 101.353 35.168C101.881 34.16 102.145 33.032 102.145 31.784C102.145 30.512 101.893 29.372 101.389 28.364C100.885 27.356 100.177 26.564 99.2647 25.988C98.3527 25.388 97.2607 25.088 95.9887 25.088C94.7407 25.088 93.6607 25.388 92.7487 25.988C91.8607 26.564 91.1647 27.368 90.6607 28.4C90.1807 29.408 89.9407 30.548 89.9407 31.82C89.9407 33.02 90.1807 34.124 90.6607 35.132C91.1647 36.116 91.8607 36.908 92.7487 37.508C93.6607 38.084 94.7407 38.372 95.9887 38.372ZM119.952 41C117.936 41 116.148 40.628 114.588 39.884C113.028 39.116 111.804 38.048 110.916 36.68C110.052 35.288 109.62 33.668 109.62 31.82C109.62 29.996 109.992 28.364 110.736 26.924C111.48 25.46 112.512 24.308 113.832 23.468C115.152 22.628 116.688 22.208 118.44 22.208C120.336 22.208 121.908 22.616 123.156 23.432C124.428 24.248 125.376 25.352 126 26.744C126.624 28.112 126.936 29.648 126.936 31.352C126.936 31.616 126.924 31.892 126.9 32.18C126.9 32.468 126.876 32.72 126.828 32.936H113.148C113.268 34.064 113.64 35.024 114.264 35.816C114.888 36.584 115.68 37.172 116.64 37.58C117.624 37.964 118.704 38.156 119.88 38.156H124.668V41H119.952ZM113.112 30.596H123.588C123.588 30.14 123.54 29.66 123.444 29.156C123.348 28.628 123.18 28.124 122.94 27.644C122.7 27.14 122.376 26.696 121.968 26.312C121.584 25.904 121.092 25.58 120.492 25.34C119.916 25.1 119.232 24.98 118.44 24.98C117.6 24.98 116.856 25.148 116.208 25.484C115.584 25.796 115.044 26.228 114.588 26.78C114.132 27.308 113.784 27.908 113.544 28.58C113.304 29.252 113.16 29.924 113.112 30.596Z" fill="#F3F3F3"/>
<line x1="29" y1="47" x2="86" y2="47" stroke="#F3F3F3" stroke-width="2"/>
</svg>
